<svg width="12" height="11" viewBox="0 0 12 11" fill="none" xmlns="http://www.w3.org/2000/svg">
<path d="M5.25098 0.492821C5.53133 -0.164273 6.46867 -0.164274 6.74902 0.49282L7.80288 2.96294C7.92298 3.24443 8.19266 3.4345 8.49975 3.4541L11.2374 3.62882C11.9811 3.67628 12.2745 4.60965 11.6902 5.06917L9.6524 6.67168C9.39841 6.87142 9.2879 7.20183 9.37103 7.51288L10.0309 9.98169C10.218 10.6817 9.4553 11.254 8.82875 10.8838L6.41586 9.458C6.15957 9.30655 5.84043 9.30655 5.58414 9.458L3.17124 10.8838C2.5447 11.254 1.78201 10.6817 1.9691 9.98169L2.62897 7.51288C2.7121 7.20183 2.60158 6.87142 2.3476 6.67168L0.309825 5.06917C-0.274509 4.60965 0.0188831 3.67628 0.762582 3.62882L3.50025 3.4541C3.80734 3.4345 4.07702 3.24443 4.19711 2.96294L5.25098 0.492821Z" fill="url(#paint0_linear_1_17)"/>
<defs>
<linearGradient id="paint0_linear_1_17" x1="6" y1="-1.26277" x2="6" y2="13.2859" gradientUnits="userSpaceOnUse">
<stop stop-color="#CA005A"/>
<stop offset="1" stop-color="#F6BFB2"/>
</linearGradient>
</defs>
</svg>
